Coordinates
version=1
nRows=22
nColumns=24
inDegrees=yes

Units are S.I. units (second, meters, Newtons, ...)
Angles are in degrees.

endheader
time	pelvis_tilt	pelvis_list	pelvis_rotation	pelvis_tx	pelvis_ty	pelvis_tz	hip_flexion_r	hip_adduction_r	hip_rotation_r	knee_angle_r	ankle_angle_r	subtalar_angle_r	mtp_angle_r	hip_flexion_l	hip_adduction_l	hip_rotation_l	knee_angle_l	ankle_angle_l	subtalar_angle_l	mtp_angle_l	lumbar_extension	lumbar_bending	lumbar_rotation
      4.09500000	    -16.47074299	     -6.74939742	      1.76068672	     -1.64748393	     -0.02138021	     -0.36119078	     24.65931377	     10.41511321	     -7.06664272	    -23.19621605	      8.99123733	    -14.06315297	     -1.75275633	     34.08647122	     -9.34396459	     -2.71691781	    -64.42891405	     -7.66914070	    -11.16252540	     18.14422035	     20.89715122	      4.09785245	    -12.74235444
      4.10000000	    -16.48593449	     -6.36867334	      1.50421474	     -1.64140030	     -0.02016102	     -0.36080803	     23.82946470	     10.22272939	     -6.56188433	    -22.54468576	      9.03335549	    -13.89733342	     -2.10558143	     34.67024213	     -8.99485981	     -3.10705246	    -63.79950393	     -7.17258490	    -11.15397280	     18.20491248	     20.83997340	      3.86819082	    -12.25576099
      4.10500000	    -16.53522407	     -5.99416911	      1.31951276	     -1.63534020	     -0.01906813	     -0.36051731	     23.04923513	      9.98883896	     -6.15961510	    -21.89716925	      9.10404066	    -13.74080739	     -2.42987365	     35.29923629	     -8.61485206	     -3.44124147	    -63.11806497	     -6.71285181	    -11.11674196	     18.20853646	     20.82551982	      3.61393033	    -11.87309392
      4.11000000	    -16.60619066	     -5.61890253	      1.15033068	     -1.62929154	     -0.01806102	     -0.36025581	     22.30542376	      9.73065254	     -5.83211532	    -21.25679762	      9.15274477	    -13.59576720	     -2.67455290	     35.93416271	     -8.23286211	     -3.77452057	    -62.36855629	     -6.28857121	    -11.06469347	     18.17565446	     20.83602791	      3.35278215	    -11.51186075
      4.11500000	    -16.65941158	     -5.26220729	      0.94707985	     -1.62327199	     -0.01713190	     -0.35995706	     21.54255427	      9.49637586	     -5.46156942	    -20.61072989	      9.22325671	    -13.40187839	     -2.91403471	     36.53009642	     -7.91226186	     -4.16260433	    -61.56558372	     -5.89159390	    -11.03629377	     18.10861815	     20.82084481	      3.11786903	    -11.13431583
      4.12000000	    -16.67442858	     -4.92645788	      0.71186668	     -1.61727598	     -0.01626414	     -0.35964810	     20.74199040	      9.28649999	     -5.05799685	    -19.96806218	      9.31701688	    -13.16097915	     -3.22492725	     37.06321968	     -7.65135510	     -4.60494323	    -60.71161370	     -5.51016595	    -11.03221180	     17.98447075	     20.76015977	      2.92455264	    -10.73406704
      4.12500000	    -16.71470219	     -4.58939869	      0.49597137	     -1.61129037	     -0.01548363	     -0.35936942	     19.98194373	      9.05143242	     -4.73154307	    -19.33555614	      9.39632749	    -12.91796431	     -3.50011012	     37.60408801	     -7.38439027	     -5.03814930	    -59.78985859	     -5.14658141	    -10.96689980	     17.85196666	     20.72818880	      2.71813958	    -10.36397683
      4.13000000	    -16.74457452	     -4.26451133	      0.27641251	     -1.60532881	     -0.01476412	     -0.35908998	     19.21809564	      8.81902462	     -4.42572219	    -18.70509897	      9.46899527	    -12.65557182	     -3.76216779	     38.11496479	     -7.14655092	     -5.49084351	    -58.81048672	     -4.81599055	    -10.87411057	     17.69761763	     20.68273826	      2.52370921	    -10.00657786
      4.13500000	    -16.81635965	     -3.94914315	      0.06178920	     -1.59940101	     -0.01418535	     -0.35883173	     18.52358973	      8.57866664	     -4.19975143	    -18.09993904	      9.53331988	    -12.40294958	     -3.88904127	     38.65175525	     -6.91744624	     -5.93096172	    -57.76986089	     -4.46137047	    -10.72258423	     17.61287001	     20.67900734	      2.33524069	     -9.64432895
      4.14000000	    -16.82056820	     -3.65333761	     -0.19409775	     -1.59349635	     -0.01363082	     -0.35856593	     17.75241957	      8.36306332	     -3.90039924	    -17.48719167	      9.63161899	    -12.08914590	     -4.02149710	     39.08825791	     -6.75253466	     -6.44369347	    -56.67823629	     -4.11837562	    -10.58958934	     17.49104198	     20.59662814	      2.18726009	     -9.26515107
      4.14500000	    -16.83552603	     -3.36378067	     -0.43409694	     -1.58761290	     -0.01314519	     -0.35832481	     17.00535526	      8.13685413	     -3.65992388	    -16.88301605	      9.70521703	    -11.77977575	     -4.12783706	     39.51706633	     -6.59009498	     -6.94433346	    -55.52575324	     -3.80073733	    -10.36375930	     17.38439084	     20.52446859	      2.03772163	     -8.91196593
      4.15000000	    -16.88466029	     -3.08973576	     -0.67925030	     -1.58175642	     -0.01278660	     -0.35809655	     16.31985346	      7.91617330	     -3.48718738	    -16.31020774	      9.77082385	    -11.47416007	     -4.16701269	     39.96090405	     -6.45101055	     -7.44717307	    -54.31703239	     -3.45985895	    -10.05670454	     17.34726931	     20.48721088	      1.90492394	     -8.54554145
      4.15500000	    -16.94124628	     -2.82965812	     -0.89808049	     -1.57592100	     -0.01254112	     -0.35791694	     15.63798869	      7.69536355	     -3.30222413	    -15.72224690	      9.86804559	    -11.16330699	     -4.17207408	     40.40494263	     -6.31497439	     -7.93751299	    -53.06987701	     -3.13772116	     -9.68966395	     17.34371182	     20.45331020	      1.77258968	     -8.23663371
      4.16000000	    -16.89302216	     -2.58158407	     -1.19828988	     -1.57010213	     -0.01222768	     -0.35768701	     14.86323451	      7.49423312	     -3.09644991	    -15.16864634	      9.94743302	    -10.77602854	     -4.15061646	     40.67929025	     -6.25255343	     -8.52467409	    -51.74088512	     -2.80508474	     -9.31464805	     17.34301049	     20.30286966	      1.68750407	     -7.84854695
      4.16500000	    -16.90193775	     -2.34861228	     -1.45456708	     -1.56429756	     -0.01205941	     -0.35752444	     14.16397283	      7.28844474	     -2.95371795	    -14.62955401	     10.01892873	    -10.41478840	     -4.10713098	     41.00692517	     -6.17238481	     -9.05578947	    -50.36939506	     -2.47732061	     -8.81362439	     17.39690301	     20.21335915	      1.59827029	     -7.52027018
      4.17000000	    -16.92191927	     -2.13500387	     -1.70103589	     -1.55849766	     -0.01199843	     -0.35737277	     13.48765116	      7.09480009	     -2.85589050	    -14.10412244	     10.10777469	    -10.05766825	     -4.04671572	     41.33010158	     -6.11147400	     -9.58861412	    -48.95811396	     -2.15733256	     -8.23290039	     17.49084141	     20.13545356	      1.52014750	     -7.17745925
      4.17500000	    -16.91988111	     -1.93122840	     -1.95355802	     -1.55270143	     -0.01197409	     -0.35723707	     12.80076618	      6.90222523	     -2.75243723	    -13.60130294	     10.19193306	     -9.66519870	     -3.95987018	     41.59838490	     -6.06198738	    -10.12978535	    -47.48972500	     -1.85400537	     -7.60399537	     17.61372264	     20.03192312	      1.45028399	     -6.86492463
      4.18000000	    -16.92374924	     -1.74275646	     -2.20235473	     -1.54692119	     -0.01203566	     -0.35715209	     12.13562460	      6.71499315	     -2.68717140	    -13.11786647	     10.27766851	     -9.26791585	     -3.85848311	     41.85498111	     -6.02070814	    -10.66478997	    -45.98447627	     -1.56633565	     -6.90914112	     17.76295508	     19.92893086	      1.40212494	     -6.55633111
      4.18500000	    -16.91812634	     -1.56551866	     -2.44426834	     -1.54112413	     -0.01216072	     -0.35707220	     11.47635277	      6.53131313	     -2.63526441	    -12.66575335	     10.37574380	     -8.85254198	     -3.73149241	     42.07248330	     -5.98545635	    -11.20451291	    -44.42892227	     -1.29580099	     -6.17678568	     17.93067496	     19.81969471	      1.35243530	     -6.27187191
      4.19000000	    -16.91293249	     -1.39871062	     -2.67949126	     -1.53533646	     -0.01236085	     -0.35703700	     10.83626549	      6.34823670	     -2.61042660	    -12.24270906	     10.47816708	     -8.42842028	     -3.58482143	     42.27054964	     -5.95179379	    -11.74672112	    -42.83946708	     -1.04964425	     -5.40363534	     18.11102334	     19.70699814	      1.31325725	     -5.99623281
      4.19500000	    -16.89282288	     -1.23420939	     -2.91368148	     -1.52953054	     -0.01261325	     -0.35701075	     10.19966754	      6.15966309	     -2.60077492	    -11.85499820	     10.59619816	     -7.98545864	     -3.40093497	     42.42127225	     -5.91585992	    -12.30165305	    -41.20279480	     -0.82675348	     -4.62005721	     18.30253462	     19.57894318	      1.27360650	     -5.73987396
      4.20000000	    -16.87802312	     -1.07618108	     -3.12756585	     -1.52370572	     -0.01295072	     -0.35705228	      9.58493188	      5.96555077	     -2.61345286	    -11.49644993	     10.72162208	     -7.54733327	     -3.18933484	     42.56112187	     -5.86466162	    -12.84840300	    -39.54314312	     -0.63629212	     -3.83517086	     18.49617957	     19.45973890	      1.23505343	     -5.50093141
